<svg width="60" height="60" viewBox="0 0 60 60" fill="none" xmlns="http://www.w3.org/2000/svg">
<circle cx="30" cy="30" r="30" fill="white"/>
<path d="M40.7739 37.4489C41.0449 37.7929 41.3161 37.966 41.5875 37.968C41.87 37.9613 42.1698 37.851 42.487 37.6372C42.8152 37.4146 43.1791 37.146 43.5786 36.8312L45.9093 34.9953C46.8637 34.2435 47.4572 33.5242 47.6896 32.8376C47.9308 32.162 47.7879 31.5012 47.261 30.8551C46.9265 30.4532 46.5075 30.1268 46.0041 29.8759C45.5095 29.6361 45.0161 29.5121 44.5241 29.504L39.6131 33.3725C39.3912 33.5473 39.187 33.6991 39.0007 33.8279C38.8255 33.9479 38.6304 34.0656 38.4155 34.181C38.5665 34.3498 38.7076 34.5174 38.8387 34.6839C38.9897 34.8527 39.1407 35.0216 39.2916 35.1904L38.6091 35.7281L35.9339 32.332L36.4334 31.9386C36.7044 32.2826 36.9756 32.4557 37.247 32.4577C37.5294 32.451 37.8292 32.3407 38.1464 32.1269C38.4834 31.9154 38.8516 31.6523 39.2512 31.3376L47.1254 25.1349C47.303 24.995 47.4695 24.8639 47.6248 24.7415C47.8001 24.6214 48.0074 24.4851 48.2468 24.3324C48.0784 24.1414 47.9099 23.9504 47.7415 23.7593C47.5817 23.5794 47.4177 23.3939 47.2492 23.2029L47.9484 22.6521C48.3331 23.1405 48.6525 23.5003 48.9067 23.7317C49.1697 23.9742 49.3869 24.1358 49.5584 24.2165C49.7386 24.3084 49.8982 24.3625 50.0371 24.379L50.4174 24.8618L45.3399 28.8614C45.7431 28.9395 46.1404 29.0671 46.5318 29.2444C46.9431 29.424 47.3254 29.6354 47.6788 29.8786C48.041 30.1328 48.3444 30.4154 48.5892 30.7261C49.3498 31.6917 49.591 32.6257 49.3128 33.5283C49.0544 34.4332 48.2915 35.3939 47.0239 36.4104L43.9406 38.8661C43.7186 39.041 43.5145 39.1928 43.3282 39.3216C43.1617 39.4527 42.971 39.5759 42.7561 39.6913C42.9071 39.8601 43.0482 40.0277 43.1793 40.1942C43.3303 40.3631 43.4812 40.5319 43.6322 40.7007L42.9497 41.2384L40.2745 37.8423L40.7739 37.4489Z" fill="black"/>
<path d="M32.5049 48.4287C32.8353 48.1412 32.9949 47.8619 32.9837 47.5907C32.9632 47.3089 32.8384 47.0148 32.6093 46.7085C32.371 46.3915 32.0849 46.0412 31.7511 45.6575L29.8036 43.4192C29.0061 42.5026 28.2587 41.945 27.5615 41.7463C26.8749 41.5384 26.2219 41.7133 25.6023 42.2711C25.2172 42.6249 24.9117 43.0593 24.6856 43.5744C24.4702 44.0801 24.3705 44.5789 24.3864 45.0707L28.49 49.7871C28.6754 50.0002 28.837 50.1967 28.9747 50.3765C29.1032 50.5457 29.2303 50.7348 29.3559 50.9438C29.5172 50.7847 29.6778 50.6357 29.8376 50.4966C29.9989 50.3375 30.1602 50.1785 30.3214 50.0195L30.8917 50.6749L27.6303 53.5127L27.213 53.033C27.5434 52.7456 27.703 52.4662 27.6918 52.1951C27.6713 51.9133 27.5465 51.6192 27.3175 51.3129C27.0898 50.9866 26.809 50.6316 26.4751 50.2479L19.8955 42.6858C19.7471 42.5153 19.608 42.3554 19.4782 42.2062C19.3498 42.037 19.2035 41.8366 19.0393 41.6049C18.8567 41.7825 18.6741 41.96 18.4916 42.1376C18.3196 42.3059 18.1424 42.4789 17.9598 42.6565L17.3756 41.985C17.8446 41.577 18.1884 41.2403 18.4071 40.9751C18.6365 40.7007 18.7873 40.4758 18.8595 40.3006C18.9424 40.1161 18.9888 39.954 18.9984 39.8145L19.4621 39.4111L23.7048 44.2873C23.7631 43.8808 23.8712 43.4777 24.0291 43.0781C24.1884 42.6586 24.3809 42.2664 24.6066 41.9015C24.8428 41.5274 25.1102 41.2105 25.4086 40.9508C26.3359 40.144 27.2571 39.8575 28.1722 40.0914C29.0886 40.3052 30.0854 41.0204 31.1625 42.2368L33.7659 45.1966C33.9513 45.4098 34.1129 45.6063 34.2506 45.7861C34.3898 45.946 34.5221 46.1304 34.6478 46.3394C34.8091 46.1804 34.9696 46.0313 35.1295 45.8922C35.2908 45.7332 35.452 45.5741 35.6133 45.4151L36.1836 46.0706L32.9222 48.9083L32.5049 48.4287Z" fill="black"/>
<path d="M12.7893 32.2568C13.0548 32.6051 13.3232 32.7825 13.5945 32.7889C13.877 32.7868 14.1786 32.6814 14.4991 32.4726C14.8309 32.2554 15.1991 31.9926 15.6036 31.6843L17.9635 29.8862C18.9299 29.1498 19.5349 28.4402 19.7784 27.7574C20.0304 27.0858 19.8982 26.4227 19.3817 25.7683C19.0537 25.361 18.64 25.0279 18.1407 24.7689C17.65 24.5212 17.1587 24.3893 16.6669 24.3733L11.6943 28.1622C11.4696 28.3335 11.263 28.482 11.0746 28.6077C10.8975 28.7249 10.7006 28.8395 10.4839 28.9513C10.6321 29.1225 10.7704 29.2924 10.8989 29.461C11.0471 29.6322 11.1954 29.8035 11.3436 29.9747L10.6525 30.5013L8.03233 27.0626L8.53802 26.6773C8.80346 27.0257 9.07184 27.2031 9.34315 27.2095C9.6257 27.2073 9.92725 27.1019 10.2478 26.8932C10.5881 26.6871 10.9606 26.43 11.3651 26.1217L19.3382 20.0466C19.518 19.9096 19.6866 19.7811 19.8439 19.6613C20.021 19.5441 20.2305 19.4111 20.4724 19.2623C20.307 19.0686 20.1417 18.8749 19.9763 18.6812C19.8195 18.4987 19.6584 18.3106 19.4931 18.1169L20.201 17.5774C20.5778 18.0719 20.8914 18.4368 21.1418 18.6723C21.4008 18.919 21.6154 19.0841 21.7856 19.1675C21.9644 19.2622 22.123 19.319 22.2616 19.3377L22.6341 19.8265L17.4929 23.7439C17.8948 23.8284 18.29 23.9625 18.6785 24.146C19.0868 24.3322 19.4657 24.5498 19.8152 24.7986C20.1732 25.0586 20.4721 25.346 20.7118 25.6607C21.4568 26.6383 21.6829 27.5761 21.3902 28.4741C21.1173 29.3748 20.339 30.3231 19.0552 31.319L15.9328 33.7248C15.708 33.8961 15.5015 34.0446 15.3131 34.1703C15.1446 34.2988 14.9519 34.4189 14.7352 34.5308C14.8834 34.702 15.0218 34.8719 15.1502 35.0405C15.2984 35.2117 15.4467 35.3829 15.5949 35.5542L14.9038 36.0808L12.2837 32.6421L12.7893 32.2568Z" fill="black"/>
<path d="M27.8033 11.1133C27.4722 11.4 27.312 11.679 27.3226 11.9502C27.3425 12.232 27.4666 12.5264 27.695 12.8332C27.9326 13.1507 28.2179 13.5017 28.5509 13.8862L30.4934 16.1288C31.2888 17.0472 32.035 17.6065 32.7317 17.8067C33.4178 18.0161 34.0712 17.8426 34.6921 17.2862C35.0779 16.9333 35.3845 16.4996 35.6117 15.985C35.8282 15.4798 35.929 14.9812 35.9142 14.4894L31.8212 9.76388C31.6362 9.5503 31.4751 9.35345 31.3377 9.17333C31.2097 9.0039 31.083 8.81453 30.9578 8.60524C30.7962 8.76391 30.6353 8.91263 30.4751 9.05137C30.3135 9.21005 30.1519 9.36873 29.9903 9.5274L29.4214 8.87064L32.6892 6.0402L33.1054 6.52076C32.7744 6.8075 32.6142 7.08646 32.6248 7.35765C32.6446 7.63951 32.7687 7.93386 32.9971 8.24069C33.2241 8.56746 33.504 8.92306 33.837 9.30751L40.3998 16.8843C40.5478 17.0552 40.6865 17.2154 40.816 17.3649C40.9441 17.5343 41.0899 17.7351 41.2536 17.9671C41.4366 17.79 41.6195 17.6128 41.8025 17.4356C41.9748 17.2677 42.1524 17.0951 42.3354 16.918L42.9181 17.5907C42.4483 17.9977 42.1037 18.3336 41.8844 18.5983C41.6544 18.8723 41.5031 19.0968 41.4304 19.2718C41.3471 19.4562 41.3004 19.6181 41.2904 19.7576L40.8259 20.1599L36.5941 15.2743C36.5349 15.6807 36.4259 16.0835 36.2671 16.4827C36.1068 16.9019 35.9134 17.2937 35.687 17.6581C35.4499 18.0317 35.1818 18.348 34.8828 18.607C33.9537 19.4117 33.0319 19.6961 32.1174 19.4603C31.2014 19.2443 30.2062 18.527 29.1318 17.3081L26.5351 14.3425C26.3501 14.129 26.1889 13.9321 26.0516 13.752C25.9129 13.5918 25.7809 13.4071 25.6557 13.1978C25.494 13.3564 25.3331 13.5052 25.173 13.6439C25.0113 13.8026 24.8497 13.9613 24.6881 14.1199L24.1193 13.4632L27.387 10.6327L27.8033 11.1133Z" fill="black"/>
</svg>
